<?xml version="1.0" encoding="UTF-8" standalone="no"?>
<!-- Created with Inkscape (http://www.inkscape.org/) -->

<svg
   xmlns:dc="http://purl.org/dc/elements/1.1/"
   xmlns:cc="http://creativecommons.org/ns#"
   xmlns:rdf="http://www.w3.org/1999/02/22-rdf-syntax-ns#"
   xmlns:svg="http://www.w3.org/2000/svg"
   xmlns="http://www.w3.org/2000/svg"
   xmlns:sodipodi="http://sodipodi.sourceforge.net/DTD/sodipodi-0.dtd"
   xmlns:inkscape="http://www.inkscape.org/namespaces/inkscape"
   width="223.76189mm"
   height="223.76189mm"
   viewBox="0 0 223.76189 223.76189"
   version="1.1"
   id="svg8"
   inkscape:version="0.92.3 (2405546, 2018-03-11)"
   sodipodi:docname="ripple.svg">
  <defs
     id="defs2">
    <inkscape:path-effect
       effect="bend_path"
       id="path-effect995"
       is_visible="true"
       bendpath="m 817.48395,169.50998 c 4.77781,-3.06597 27.62648,-13.90744 37.25112,-31.61666 8.99155,-16.54435 7.64581,-33.58977 9.61794,-37.930966"
       prop_scale="1"
       scale_y_rel="false"
       vertical="false" />
    <inkscape:path-effect
       effect="bend_path"
       id="path-effect974"
       is_visible="true"
       bendpath="M 425.62826,489.71094 H 575.12827"
       prop_scale="1"
       scale_y_rel="false"
       vertical="false" />
  </defs>
  <sodipodi:namedview
     id="base"
     pagecolor="#ffffff"
     bordercolor="#666666"
     borderopacity="1.0"
     inkscape:pageopacity="0.0"
     inkscape:pageshadow="2"
     inkscape:zoom="0.49497475"
     inkscape:cx="408.26845"
     inkscape:cy="408.17784"
     inkscape:document-units="mm"
     inkscape:current-layer="layer1"
     showgrid="false"
     showborder="true"
     inkscape:window-width="1366"
     inkscape:window-height="704"
     inkscape:window-x="0"
     inkscape:window-y="27"
     inkscape:window-maximized="1"
     inkscape:snap-global="false"
     inkscape:snap-bbox="false"
     inkscape:object-paths="true"
     fit-margin-top="0"
     fit-margin-left="0"
     fit-margin-right="0"
     fit-margin-bottom="0" />
  <metadata
     id="metadata5">
    <rdf:RDF>
      <cc:Work
         rdf:about="">
        <dc:format>image/svg+xml</dc:format>
        <dc:type
           rdf:resource="http://purl.org/dc/dcmitype/StillImage" />
        <dc:title />
      </cc:Work>
    </rdf:RDF>
  </metadata>
  <g
     inkscape:label="Layer 1"
     inkscape:groupmode="layer"
     id="layer1"
     transform="translate(-304.2815,19.533958)">
    <circle
       style="opacity:1;fill:#aaffee;fill-opacity:1;stroke:none;stroke-width:0.93670887;stroke-linecap:round;stroke-linejoin:round;stroke-miterlimit:4;stroke-dasharray:none;stroke-opacity:1"
       id="path875"
       cx="651.35962"
       cy="91.277908"
       r="111.88094" />
    <ellipse
       style="opacity:0.644;fill:#008080;fill-opacity:1;stroke:none;stroke-width:1.77073169;stroke-linecap:round;stroke-linejoin:round;stroke-miterlimit:4;stroke-dasharray:none;stroke-opacity:1"
       id="ellipse823"
       cx="-67.657738"
       cy="117.83928"
       rx="137.20535"
       ry="37.480484" />
    <ellipse
       ry="28.807316"
       rx="105.45536"
       cy="112.54762"
       cx="-67.657738"
       id="ellipse821"
       style="opacity:0.644;fill:#008080;fill-opacity:1;stroke:none;stroke-width:1.36097562;stroke-linecap:round;stroke-linejoin:round;stroke-miterlimit:4;stroke-dasharray:none;stroke-opacity:1" />
    <path
       style="opacity:0.503;fill:#008080;fill-opacity:1;stroke:none;stroke-width:3.77952766;stroke-linecap:round;stroke-linejoin:round;stroke-miterlimit:4;stroke-dasharray:none;stroke-opacity:1"
       d="m -272.85714,351.09152 c -135.97109,-33.35434 -253.70252,34.93532 -290.00028,57.14286 -78.74488,48.17735 124.35764,81.54143 292.85742,80 161.49798,-1.47738 264.2054498,-0.64209 292.857422,-80 13.532731,-37.48186 -142.228732,-19.49207 -295.714562,-57.14286 z m -40,5.87332 c 36.89581,62.12532 259.426874,22.94439 267.142296,51.26954 -0.0015,33.8372 -96.131116,46.98177 -219.999446,46.98186 -123.86833,-9e-5 -228.56941,-13.14466 -228.57087,-46.98186 -9.17677,-26.67763 11.25359,26.78471 181.42802,-51.26954 z"
       transform="scale(0.26458333)"
       id="path815"
       inkscape:connector-curvature="0"
       sodipodi:nodetypes="sssssccccc" />
    <path
       style="fill:#008080;stroke:none;stroke-width:0.26458332px;stroke-linecap:butt;stroke-linejoin:miter;stroke-opacity:1"
       d="m -63.499999,92.892858 c -9.129453,-17.600946 9.457857,-24.851947 12.095239,-36.285716 1.847221,-8.008205 -13.800181,-16.534433 -24.190477,-11.339285 -5.724165,2.862082 -17.161756,5.741968 -9.071429,21.922619 17.701837,27.946666 3.622041,14.526613 -0.329581,32.280396 -17.881433,0.591118 -39.965653,0.440386 -51.075183,7.029128 -16.00632,9.49289 41.19184,14.89067 63.500003,15.11905 34.274742,0.35089 73.2897695,-3.11437 63.8779747,-14.74108 C -22.636356,89.653835 -68.523877,120.92482 -63.499999,92.892858 Z"
       id="path825"
       inkscape:connector-curvature="0"
       sodipodi:nodetypes="cssccsssc" />
    <path
       style="opacity:0.644;fill:#00cdcd;fill-opacity:1;stroke:none;stroke-width:1;stroke-linecap:round;stroke-linejoin:round;stroke-miterlimit:4;stroke-dasharray:none;stroke-opacity:1"
       d="m -76.420651,57.897634 c 0,2.505005 6.433276,5.070252 1.840765,5.070252 -4.592511,0 -6.391399,-1.913867 -7.246398,-4.268444 -1.343162,-3.698927 -0.677651,-11.892181 5.91005,-8.277488 4.026234,2.209208 -0.504417,4.970674 -0.504417,7.47568 z"
       id="path846"
       inkscape:connector-curvature="0"
       sodipodi:nodetypes="sssss" />
    <g
       id="g843">
      <path
         inkscape:connector-curvature="0"
         id="path889"
         d="m 416.16271,54.406412 a 107.9827,37.939868 0 0 0 -107.98255,37.941352 107.9827,37.939868 0 0 0 107.98255,37.939796 107.9827,37.939868 0 0 0 45.32955,-3.55172 l -1.35239,-9.08368 1.72807,-0.25683 0.1478,0.99374 c 0.12448,-0.40962 0.31996,-0.73317 0.58703,-0.97048 0.26707,-0.23731 0.59999,-0.38565 0.9984,-0.44494 0.75735,-0.11271 1.39007,0.10383 1.89858,0.64906 0.50852,0.54523 0.84539,1.3698 1.00975,2.47426 0.16674,1.12024 0.0815,2.01181 -0.25527,2.67477 -0.33282,0.66238 -0.89194,1.05211 -1.6769,1.16892 -0.35499,0.0528 -0.68789,0.01 -0.99891,-0.12919 -0.30766,-0.14371 -0.59531,-0.38542 -0.86352,-0.7245 l 0.49972,3.35639 a 107.9827,37.939868 0 0 0 5.64412,-0.99994 l -1.73739,-8.85993 1.7136,-0.33641 0.19378,0.98599 c 0.10557,-0.41491 0.2862,-0.747 0.54211,-0.99632 0.25587,-0.24933 0.58142,-0.41237 0.97668,-0.4899 0.75136,-0.14737 1.39345,0.0394 1.92648,0.56069 0.53303,0.5213 0.90697,1.32995 1.12189,2.42569 0.21802,1.1114 0.1742,2.00582 -0.13176,2.68356 -0.30205,0.67696 -0.84233,1.09162 -1.62111,1.24436 -0.35218,0.0691 -0.68699,0.0416 -1.00406,-0.0832 -0.31393,-0.12943 -0.61259,-0.35728 -0.89607,-0.68368 l 0.62373,3.1812 A 107.9827,37.939868 0 0 0 524.14475,92.347764 107.9827,37.939868 0 0 0 416.16271,54.406412 Z m -12.14758,3.680911 a 90.446859,31.778628 0 0 1 90.4472,31.777906 90.446859,31.778628 0 0 1 -37.74807,25.778791 l 0.12401,1.16685 -1.74305,0.18449 -0.0977,-0.91984 a 90.446859,31.778628 0 0 1 -4.15168,0.94154 c 0.50207,0.37682 0.78435,1.00878 0.84336,1.89962 0.0406,0.6128 -0.0764,1.11003 -0.35089,1.4919 -0.27446,0.38188 -0.69012,0.62709 -1.24643,0.73587 0.17746,0.0242 0.33422,0.0978 0.47024,0.22066 0.13976,0.11864 0.31584,0.35871 0.52761,0.72037 l 1.82367,3.09852 -1.93374,0.12816 -1.22369,-2.1792 c -0.036,-0.0616 -0.0835,-0.14625 -0.14262,-0.25425 -0.3589,-0.65167 -0.75091,-0.96354 -1.17668,-0.93534 l -0.5612,0.0372 0.23307,3.52175 -1.76062,0.11678 -0.50281,-7.59436 a 90.446859,31.778628 0 0 1 -41.82998,3.61943 90.446859,31.778628 0 0 1 -90.44771,-31.778941 90.446859,31.778628 0 0 1 90.44771,-31.777906 z m 72.42969,53.813257 1.58596,6.31847 c 0.12814,0.51057 0.29806,0.85233 0.51004,1.02526 0.21198,0.17293 0.50718,0.21142 0.88625,0.11627 l 1.35805,-0.34054 0.32763,1.30534 -1.83348,0.46044 c -0.80841,0.20291 -1.44124,0.13974 -1.89807,-0.18965 -0.45683,-0.3294 -0.8069,-0.97993 -1.05058,-1.95079 l -1.25833,-5.01261 -1.72289,0.43253 -0.32813,-1.30534 z m 7.96591,0.37052 c 0.53359,-0.0248 1.01891,0.0866 1.45627,0.33434 0.70234,0.39148 1.21597,1.09628 1.54046,2.1146 l 0.216,0.67852 -4.32583,1.3782 c 0.16362,0.50036 0.43127,0.82759 0.80253,0.98134 0.37129,0.15375 0.84752,0.1377 1.42886,-0.0475 0.38378,-0.12228 0.74433,-0.29774 1.08159,-0.52658 0.33727,-0.22885 0.67069,-0.52766 1.00097,-0.89659 l 0.48887,1.53324 c -0.33673,0.28309 -0.69392,0.52877 -1.07127,0.73691 -0.37732,0.20813 -0.79031,0.38371 -1.23867,0.52657 -1.06773,0.34023 -1.97559,0.31515 -2.72336,-0.0744 -0.74517,-0.39456 -1.28878,-1.12919 -1.63142,-2.20451 -0.33173,-1.04112 -0.32242,-1.95019 0.0284,-2.72748 0.35086,-0.77729 0.99573,-1.31584 1.93426,-1.61489 0.35478,-0.11306 0.69218,-0.17682 1.01232,-0.19172 z m -0.0129,1.39268 c -0.1787,-0.006 -0.37425,0.0252 -0.58703,0.093 -0.38378,0.12228 -0.6522,0.33772 -0.80513,0.64595 -0.15412,0.30443 -0.18391,0.67766 -0.0889,1.12035 l 2.62567,-0.84285 c -0.14806,-0.43834 -0.36758,-0.73435 -0.65939,-0.88831 -0.14462,-0.0795 -0.30655,-0.12232 -0.48525,-0.12816 z m -13.97693,3.57962 c -0.0451,0.003 -0.0905,0.009 -0.13692,0.0181 -0.37177,0.0729 -0.63003,0.31037 -0.77465,0.71262 -0.14462,0.40225 -0.15483,0.92046 -0.0305,1.55442 0.12435,0.63397 0.32962,1.11001 0.61547,1.42782 0.28586,0.31781 0.61474,0.43982 0.9865,0.3669 0.37177,-0.0729 0.62773,-0.3101 0.76843,-0.71158 0.14071,-0.40148 0.14915,-0.91891 0.0248,-1.55288 -0.12432,-0.63396 -0.32784,-1.11026 -0.60978,-1.42884 -0.2467,-0.27876 -0.52787,-0.40753 -0.84336,-0.38654 z m -21.63535,0.76792 c -0.10475,-0.005 -0.21815,-0.003 -0.33951,0.005 l -0.82942,0.0553 0.16071,2.4293 0.82992,-0.0553 c 0.48149,-0.0319 0.81936,-0.14809 1.01391,-0.34881 0.19825,-0.20497 0.28297,-0.52435 0.25424,-0.95809 -0.0287,-0.43373 -0.15278,-0.73721 -0.37206,-0.91053 -0.16449,-0.13 -0.4036,-0.20212 -0.71779,-0.21653 z m 8.18089,0.007 0.56481,5.32421 2.16524,-0.22996 0.14213,1.33842 -6.07922,0.64492 -0.14211,-1.33842 2.17093,-0.22996 -0.42272,-3.9858 -1.70738,0.18139 -0.14211,-1.33842 z m 6.43991,0.44493 c -0.0451,9.2e-4 -0.0911,0.005 -0.13798,0.0119 -0.37471,0.0558 -0.64371,0.28126 -0.80667,0.67644 -0.16293,0.39518 -0.1969,0.91232 -0.10181,1.55133 0.0951,0.63901 0.27837,1.12357 0.54933,1.45418 0.27096,0.3306 0.5937,0.46814 0.96843,0.41237 0.37473,-0.0558 0.64145,-0.28082 0.80047,-0.67541 0.15899,-0.39459 0.19121,-0.91128 0.0961,-1.55029 -0.0951,-0.63901 -0.27662,-1.12402 -0.54361,-1.45521 -0.23365,-0.28979 -0.50813,-0.43177 -0.82425,-0.4253 z"
         style="opacity:1;fill:#008080;fill-opacity:1;stroke:none;stroke-width:4.85052347;stroke-linecap:round;stroke-linejoin:round;stroke-miterlimit:4;stroke-dasharray:none;stroke-opacity:1" />
      <path
         inkscape:connector-curvature="0"
         id="path861"
         d="m 403.71416,59.613795 a 83.032217,29.173483 0 0 0 -83.03265,29.173772 83.032217,29.173483 0 0 0 83.03265,29.173773 83.032217,29.173483 0 0 0 83.03163,-29.173773 83.032217,29.173483 0 0 0 -83.03163,-29.173772 z m 8.93541,5.328309 a 69.548205,24.435858 0 0 1 69.54824,24.435569 69.548205,24.435858 0 0 1 -69.54824,24.435567 69.548205,24.435858 0 0 1 -69.54928,-24.435567 69.548205,24.435858 0 0 1 2.72655,-6.697719 55.354808,19.448988 0 0 1 50.10758,-16.996385 69.548205,24.435858 0 0 1 16.71515,-0.741465 z"
         style="opacity:1;fill:#008080;fill-opacity:1;stroke:none;stroke-width:3.7297616;stroke-linecap:round;stroke-linejoin:round;stroke-miterlimit:4;stroke-dasharray:none;stroke-opacity:1" />
      <path
         id="path835"
         d="m 412.42083,66.788275 a 63.61577,22.351487 0 0 0 -2.29288,0.04031 53.284892,18.72172 0 0 1 52.69807,18.711003 53.284892,18.72172 0 0 1 -53.28563,18.721852 53.284892,18.72172 0 0 1 -53.28511,-18.721852 53.284892,18.72172 0 0 1 26.46711,-16.150953 63.61577,22.351487 0 0 0 -33.91731,19.751249 63.61577,22.351487 0 0 0 63.61575,22.351606 63.61577,22.351487 0 0 0 63.61575,-22.351606 63.61577,22.351487 0 0 0 -63.61575,-22.351608 z"
         style="opacity:1;fill:#008080;fill-opacity:1;stroke:none;stroke-width:2.85758519;stroke-linecap:round;stroke-linejoin:round;stroke-miterlimit:4;stroke-dasharray:none;stroke-opacity:1"
         inkscape:connector-curvature="0" />
      <path
         style="opacity:1;fill:#008080;fill-opacity:1;stroke:none;stroke-width:1.81627262;stroke-linecap:round;stroke-linejoin:round;stroke-miterlimit:4;stroke-dasharray:none;stroke-opacity:1"
         d="m 408.52475,73.51181 a 40.433991,14.206538 0 0 0 -40.4342,14.206679 40.433991,14.206538 0 0 0 40.4342,14.206671 40.433991,14.206538 0 0 0 40.4337,-14.206671 40.433991,14.206538 0 0 0 -40.4337,-14.206679 z m 4.35125,2.594713 a 33.867715,11.899468 0 0 1 33.86773,11.899328 33.867715,11.899468 0 0 1 -33.86773,11.899328 33.867715,11.899468 0 0 1 -33.86823,-11.899328 33.867715,11.899468 0 0 1 1.32773,-3.261571 26.955992,9.4710252 0 0 1 24.40077,-8.276687 33.867715,11.899468 0 0 1 8.13973,-0.36107 z"
         id="path863"
         inkscape:connector-curvature="0" />
    </g>
    <g
       id="g855"
       transform="matrix(1.3535534,0,0,1.3535534,-138.14417,-21.347216)">
      <circle
         style="opacity:1;fill:#008080;fill-opacity:1;stroke:none;stroke-width:1;stroke-linecap:round;stroke-linejoin:round;stroke-miterlimit:4;stroke-dasharray:none;stroke-opacity:1"
         id="circle847"
         cx="404.33786"
         cy="64.914757"
         r="10.583333" />
      <ellipse
         cy="-83.757385"
         cx="394.73322"
         id="ellipse845"
         style="opacity:1;fill:#00d0d0;fill-opacity:1;stroke:none;stroke-width:0.2581577;stroke-linecap:round;stroke-linejoin:round;stroke-miterlimit:4;stroke-dasharray:none;stroke-opacity:1"
         rx="2.0788689"
         ry="3.5907736"
         transform="rotate(21.046922)" />
    </g>
    <flowRoot
       xml:space="preserve"
       id="flowRoot877"
       style="font-style:normal;font-variant:normal;font-weight:bold;font-stretch:normal;font-size:42.66666794px;line-height:1.25;font-family:'DejaVu Sans Mono';-inkscape-font-specification:'DejaVu Sans Mono, Bold';font-variant-ligatures:normal;font-variant-caps:normal;font-variant-numeric:normal;font-feature-settings:normal;text-align:start;letter-spacing:0px;word-spacing:0px;writing-mode:lr-tb;text-anchor:start;fill:#000000;fill-opacity:1;stroke:none"
       transform="matrix(0.46684482,0,0,0.46684482,506.11107,-49.512235)"><flowRegion
         id="flowRegion879"><rect
           id="rect881"
           width="217.14288"
           height="65.714287"
           x="422.85715"
           y="464.86813" /></flowRegion><flowPara
         id="flowPara883">Ripple</flowPara></flowRoot>  </g>
</svg>
